<svg width="120" height="120" viewBox="0 0 120 120" fill="none" xmlns="http://www.w3.org/2000/svg">
<path d="M6.99667 100.217C6.02245 100.217 5.27636 99.9395 4.75842 99.3846C4.25281 98.8296 4 98.0466 4 97.0353V90.0801C4 89.0689 4.25281 88.2858 4.75842 87.7308C5.27636 87.1759 6.02245 86.8984 6.99667 86.8984C7.9709 86.8984 8.71082 87.1759 9.21643 87.7308C9.73437 88.2858 9.99335 89.0689 9.99335 90.0801V91.4489H8.06956V89.9506C8.06956 89.149 7.73043 88.7482 7.05217 88.7482C6.37391 88.7482 6.03478 89.149 6.03478 89.9506V97.1833C6.03478 97.9726 6.37391 98.3672 7.05217 98.3672C7.73043 98.3672 8.06956 97.9726 8.06956 97.1833V95.204H9.99335V97.0353C9.99335 98.0466 9.73437 98.8296 9.21643 99.3846C8.71082 99.9395 7.9709 100.217 6.99667 100.217Z" fill="#103178"/>
<path d="M11.8582 87.0834H13.893V92.3553H16.0757V87.0834H18.1105V100.032H16.0757V94.2051H13.893V100.032H11.8582V87.0834Z" fill="#103178"/>
<path d="M20.2733 87.0834H25.8227V88.9332H22.3081V92.3553H25.1013V94.2051H22.3081V98.1822H25.8227V100.032H20.2733V87.0834Z" fill="#103178"/>
<path d="M27.6407 87.0834H30.5449L31.8397 96.3509H31.8767L33.1716 87.0834H36.0758V100.032H34.152V90.2281H34.115L32.6352 100.032H30.9333L29.4535 90.2281H29.4165V100.032H27.6407V87.0834Z" fill="#103178"/>
<path d="M38.2416 87.0834H43.791V88.9332H40.2764V92.3553H43.0696V94.2051H40.2764V98.1822H43.791V100.032H38.2416V87.0834Z" fill="#103178"/>
<path d="M47.4395 93.4097L45.2012 87.0834H47.347L48.7158 91.264H48.7528L50.1587 87.0834H52.0825L49.8442 93.4097L52.1935 100.032H50.0477L48.5678 95.5185H48.5308L47.014 100.032H45.0902L47.4395 93.4097Z" fill="#103178"/>
<path d="M53.8074 87.0834H56.8041C57.8153 87.0834 58.5737 87.3547 59.0793 87.8973C59.5849 88.4399 59.8377 89.2353 59.8377 90.2836V91.5599C59.8377 92.6081 59.5849 93.4036 59.0793 93.9462C58.5737 94.4888 57.8153 94.7601 56.8041 94.7601H55.8422V100.032H53.8074V87.0834ZM56.8041 92.9103C57.137 92.9103 57.3837 92.8178 57.544 92.6328C57.7166 92.4478 57.803 92.1334 57.803 91.6894V90.1541C57.803 89.7101 57.7166 89.3957 57.544 89.2107C57.3837 89.0257 57.137 88.9332 56.8041 88.9332H55.8422V92.9103H56.8041Z" fill="#103178"/>
<path d="M61.5903 87.0834H64.6054C65.6537 87.0834 66.4183 87.3301 66.8992 87.8233C67.3801 88.3043 67.6206 89.0504 67.6206 90.0616V90.857C67.6206 92.2012 67.1767 93.0521 66.2888 93.4097V93.4467C66.782 93.5947 67.1273 93.8968 67.3247 94.3531C67.5343 94.8094 67.6391 95.4198 67.6391 96.1844V98.4597C67.6391 98.8296 67.6515 99.1318 67.6761 99.3661C67.7008 99.5881 67.7624 99.81 67.8611 100.032H65.7893C65.7153 99.8224 65.666 99.625 65.6413 99.4401C65.6167 99.2551 65.6043 98.9221 65.6043 98.4412V96.0734C65.6043 95.4815 65.5057 95.0684 65.3084 94.8341C65.1234 94.5998 64.7966 94.4826 64.328 94.4826H63.6251V100.032H61.5903V87.0834ZM64.365 92.6328C64.7719 92.6328 65.0741 92.528 65.2714 92.3183C65.481 92.1087 65.5858 91.7572 65.5858 91.264V90.2651C65.5858 89.7965 65.4995 89.4573 65.3269 89.2477C65.1666 89.038 64.9076 88.9332 64.55 88.9332H63.6251V92.6328H64.365Z" fill="#103178"/>
<path d="M69.6983 87.0834H75.2477V88.9332H71.7331V92.3553H74.5263V94.2051H71.7331V98.1822H75.2477V100.032H69.6983V87.0834Z" fill="#103178"/>
<path d="M79.7471 100.217C78.7605 100.217 78.0144 99.9395 77.5088 99.3846C77.0032 98.8173 76.7504 98.0096 76.7504 96.9613V96.2214H78.6742V97.1093C78.6742 97.9479 79.0256 98.3672 79.7286 98.3672C80.0739 98.3672 80.3328 98.2685 80.5055 98.0712C80.6905 97.8616 80.7829 97.5286 80.7829 97.0723C80.7829 96.5297 80.6596 96.0549 80.413 95.648C80.1663 95.2287 79.7101 94.7292 79.0441 94.1496C78.2056 93.4097 77.6198 92.7438 77.2868 92.1519C76.9539 91.5476 76.7874 90.8693 76.7874 90.1171C76.7874 89.0935 77.0464 88.3043 77.5643 87.7493C78.0822 87.1821 78.8345 86.8984 79.821 86.8984C80.7953 86.8984 81.529 87.1821 82.0223 87.7493C82.5279 88.3043 82.7807 89.1059 82.7807 90.1541V90.6905H80.8569V90.0246C80.8569 89.5806 80.7706 89.26 80.598 89.0627C80.4253 88.8531 80.1725 88.7482 79.8395 88.7482C79.1613 88.7482 78.8222 89.1614 78.8222 89.9876C78.8222 90.4562 78.9455 90.894 79.1921 91.301C79.4511 91.7079 79.9135 92.2012 80.5795 92.7808C81.4304 93.5207 82.0161 94.1928 82.3368 94.7971C82.6574 95.4013 82.8177 96.1104 82.8177 96.9243C82.8177 97.9849 82.5526 98.7988 82.0223 99.3661C81.5044 99.9333 80.7459 100.217 79.7471 100.217Z" fill="#103178"/>
<path d="M87.277 100.217C86.2905 100.217 85.5444 99.9395 85.0388 99.3846C84.5332 98.8173 84.2804 98.0096 84.2804 96.9613V96.2214H86.2041V97.1093C86.2041 97.9479 86.5556 98.3672 87.2585 98.3672C87.6038 98.3672 87.8628 98.2685 88.0355 98.0712C88.2204 97.8616 88.3129 97.5286 88.3129 97.0723C88.3129 96.5297 88.1896 96.0549 87.943 95.648C87.6963 95.2287 87.24 94.7292 86.5741 94.1496C85.7355 93.4097 85.1498 92.7438 84.8168 92.1519C84.4838 91.5476 84.3174 90.8693 84.3174 90.1171C84.3174 89.0935 84.5763 88.3043 85.0943 87.7493C85.6122 87.1821 86.3645 86.8984 87.351 86.8984C88.3252 86.8984 89.059 87.1821 89.5523 87.7493C90.0579 88.3043 90.3107 89.1059 90.3107 90.1541V90.6905H88.3869V90.0246C88.3869 89.5806 88.3006 89.26 88.1279 89.0627C87.9553 88.8531 87.7025 88.7482 87.3695 88.7482C86.6913 88.7482 86.3521 89.1614 86.3521 89.9876C86.3521 90.4562 86.4755 90.894 86.7221 91.301C86.9811 91.7079 87.4435 92.2012 88.1094 92.7808C88.9603 93.5207 89.5461 94.1928 89.8667 94.7971C90.1874 95.4013 90.3477 96.1104 90.3477 96.9243C90.3477 97.9849 90.0826 98.7988 89.5523 99.3661C89.0343 99.9333 88.2759 100.217 87.277 100.217Z" fill="#103178"/>
<path d="M31.2796 42.4398C34.7577 44.8236 36.318 45.192 39.8395 46.8823C49.0278 51.2922 58.9529 54.1852 58.9529 54.1852C48.486 48.2584 44.3578 45.3003 35.8304 38.5175C27.2381 31.6696 17.0312 20 17.0312 20C18.1039 28.1373 23.4349 37.0547 31.2796 42.4398Z" fill="#103178"/>
<path d="M84.4917 63.0987C78.8574 60.3791 77.1996 60.2382 73.1039 59.4906C56.4067 56.4351 44.4879 52.1768 31.8757 45.8165C18.5267 39.0878 7.69141 30.3438 7.69141 30.3438C13.6833 48.5036 26.924 52.3935 42.3967 57.3886C59.0072 62.7303 77.6655 63.4996 77.6655 63.4996C57.2736 64.1389 41.6491 60.0649 35.8847 58.7213C30.1204 57.3777 15.937 51.8301 15.937 51.8301C22.8608 62.8604 33.8152 65.9809 33.8152 65.9809C35.8739 66.7069 38.5177 67.2161 41.4649 67.6387C61.4126 70.5317 79.6159 67.8338 79.6159 67.8338C79.6159 67.8338 79.6592 68.0179 71.8903 69.2098C63.4171 70.5101 63.7747 70.2825 57.9345 70.6726C46.1782 71.4636 32.5692 69.8058 32.5692 69.8058C34.8771 71.3552 37.3042 72.7746 40.4464 74.0532C42.711 74.9742 45.6798 75.9819 49.6239 76.1661C55.0307 76.4261 60.73 76.4261 68.8564 76.2744C94.7636 75.7977 102.511 97.7066 102.511 97.7066C103.518 85.7878 99.7261 76.6645 93.615 70.1092C90.6787 66.9561 87.699 64.659 84.4917 63.0987Z" fill="#103178"/>
<path d="M114.593 67.6664C114.593 67.6664 111.689 66.0736 108.796 66.0411C108.796 66.0411 107.637 61.9779 102.935 60.9594C102.935 60.9594 102.902 60.7969 97.1052 60.7969C92.186 60.7969 83.832 60.8077 83.832 60.8077C83.832 60.8077 91.7959 63.7766 97.9395 72.0005C99.8032 74.4926 101.363 77.4182 102.577 80.7879C102.577 80.7879 102.317 77.9924 104.668 75.3811C105.34 74.6335 106.196 73.9292 107.345 73.4958C111.094 72.0872 112.675 73.0299 113.055 75.5112C113.055 75.5112 114.886 74.2976 115.764 71.4804C116.197 70.0827 116.164 68.6633 114.593 67.6664ZM105.015 66.8538C101.732 67.5147 101.97 65.3802 101.894 65.0226C101.851 64.8276 100.28 64.6867 100.28 64.6867C101.569 64.1341 103.888 64.4375 105.167 65.6077C105.99 66.3554 106.564 66.3337 106.564 66.3337C106.196 66.6046 105.015 66.8538 105.015 66.8538Z" fill="#103178"/>
</svg>
